<svg width="30" height="30" viewBox="0 0 30 30" fill="none" xmlns="http://www.w3.org/2000/svg">
<g clip-path="url(#clip0_28_480)">
<path d="M11.25 0H6.25C4.5924 0 3.00269 0.65848 1.83058 1.83058C0.65848 3.00269 0 4.5924 0 6.25L0 23.75C0 24.5708 0.161661 25.3835 0.475753 26.1418C0.789845 26.9001 1.25022 27.5891 1.83058 28.1694C3.00269 29.3415 4.5924 30 6.25 30H17.5V6.25C17.5 5.42924 17.3383 4.61651 17.0242 3.85823C16.7102 3.09994 16.2498 2.41095 15.6694 1.83058C15.0891 1.25022 14.4001 0.789845 13.6418 0.475753C12.8835 0.161661 12.0708 0 11.25 0V0ZM6.25 23.75H5C4.66848 23.75 4.35054 23.6183 4.11612 23.3839C3.8817 23.1495 3.75 22.8315 3.75 22.5C3.75 22.1685 3.8817 21.8505 4.11612 21.6161C4.35054 21.3817 4.66848 21.25 5 21.25H6.25C6.58152 21.25 6.89946 21.3817 7.13388 21.6161C7.3683 21.8505 7.5 22.1685 7.5 22.5C7.5 22.8315 7.3683 23.1495 7.13388 23.3839C6.89946 23.6183 6.58152 23.75 6.25 23.75ZM6.25 18.75H5C4.66848 18.75 4.35054 18.6183 4.11612 18.3839C3.8817 18.1495 3.75 17.8315 3.75 17.5C3.75 17.1685 3.8817 16.8505 4.11612 16.6161C4.35054 16.3817 4.66848 16.25 5 16.25H6.25C6.58152 16.25 6.89946 16.3817 7.13388 16.6161C7.3683 16.8505 7.5 17.1685 7.5 17.5C7.5 17.8315 7.3683 18.1495 7.13388 18.3839C6.89946 18.6183 6.58152 18.75 6.25 18.75ZM6.25 13.75H5C4.66848 13.75 4.35054 13.6183 4.11612 13.3839C3.8817 13.1495 3.75 12.8315 3.75 12.5C3.75 12.1685 3.8817 11.8505 4.11612 11.6161C4.35054 11.3817 4.66848 11.25 5 11.25H6.25C6.58152 11.25 6.89946 11.3817 7.13388 11.6161C7.3683 11.8505 7.5 12.1685 7.5 12.5C7.5 12.8315 7.3683 13.1495 7.13388 13.3839C6.89946 13.6183 6.58152 13.75 6.25 13.75ZM6.25 8.75H5C4.66848 8.75 4.35054 8.6183 4.11612 8.38388C3.8817 8.14946 3.75 7.83152 3.75 7.5C3.75 7.16848 3.8817 6.85054 4.11612 6.61612C4.35054 6.3817 4.66848 6.25 5 6.25H6.25C6.58152 6.25 6.89946 6.3817 7.13388 6.61612C7.3683 6.85054 7.5 7.16848 7.5 7.5C7.5 7.83152 7.3683 8.14946 7.13388 8.38388C6.89946 8.6183 6.58152 8.75 6.25 8.75ZM12.5 23.75H11.25C10.9185 23.75 10.6005 23.6183 10.3661 23.3839C10.1317 23.1495 10 22.8315 10 22.5C10 22.1685 10.1317 21.8505 10.3661 21.6161C10.6005 21.3817 10.9185 21.25 11.25 21.25H12.5C12.8315 21.25 13.1495 21.3817 13.3839 21.6161C13.6183 21.8505 13.75 22.1685 13.75 22.5C13.75 22.8315 13.6183 23.1495 13.3839 23.3839C13.1495 23.6183 12.8315 23.75 12.5 23.75ZM12.5 18.75H11.25C10.9185 18.75 10.6005 18.6183 10.3661 18.3839C10.1317 18.1495 10 17.8315 10 17.5C10 17.1685 10.1317 16.8505 10.3661 16.6161C10.6005 16.3817 10.9185 16.25 11.25 16.25H12.5C12.8315 16.25 13.1495 16.3817 13.3839 16.6161C13.6183 16.8505 13.75 17.1685 13.75 17.5C13.75 17.8315 13.6183 18.1495 13.3839 18.3839C13.1495 18.6183 12.8315 18.75 12.5 18.75ZM12.5 13.75H11.25C10.9185 13.75 10.6005 13.6183 10.3661 13.3839C10.1317 13.1495 10 12.8315 10 12.5C10 12.1685 10.1317 11.8505 10.3661 11.6161C10.6005 11.3817 10.9185 11.25 11.25 11.25H12.5C12.8315 11.25 13.1495 11.3817 13.3839 11.6161C13.6183 11.8505 13.75 12.1685 13.75 12.5C13.75 12.8315 13.6183 13.1495 13.3839 13.3839C13.1495 13.6183 12.8315 13.75 12.5 13.75ZM12.5 8.75H11.25C10.9185 8.75 10.6005 8.6183 10.3661 8.38388C10.1317 8.14946 10 7.83152 10 7.5C10 7.16848 10.1317 6.85054 10.3661 6.61612C10.6005 6.3817 10.9185 6.25 11.25 6.25H12.5C12.8315 6.25 13.1495 6.3817 13.3839 6.61612C13.6183 6.85054 13.75 7.16848 13.75 7.5C13.75 7.83152 13.6183 8.14946 13.3839 8.38388C13.1495 8.6183 12.8315 8.75 12.5 8.75ZM23.75 6.25H20V30H23.75C25.407 29.998 26.9956 29.3389 28.1672 28.1672C29.3389 26.9956 29.998 25.407 30 23.75V12.5C29.998 10.843 29.3389 9.25445 28.1672 8.08278C26.9956 6.9111 25.407 6.25198 23.75 6.25ZM25 23.75C24.7528 23.75 24.5111 23.6767 24.3055 23.5393C24.1 23.402 23.9398 23.2068 23.8451 22.9784C23.7505 22.7499 23.7258 22.4986 23.774 22.2561C23.8223 22.0137 23.9413 21.7909 24.1161 21.6161C24.2909 21.4413 24.5137 21.3223 24.7561 21.274C24.9986 21.2258 25.2499 21.2505 25.4784 21.3451C25.7068 21.4398 25.902 21.6 26.0393 21.8055C26.1767 22.0111 26.25 22.2528 26.25 22.5C26.25 22.8315 26.1183 23.1495 25.8839 23.3839C25.6495 23.6183 25.3315 23.75 25 23.75ZM25 18.75C24.7528 18.75 24.5111 18.6767 24.3055 18.5393C24.1 18.402 23.9398 18.2068 23.8451 17.9784C23.7505 17.7499 23.7258 17.4986 23.774 17.2561C23.8223 17.0137 23.9413 16.7909 24.1161 16.6161C24.2909 16.4413 24.5137 16.3223 24.7561 16.274C24.9986 16.2258 25.2499 16.2505 25.4784 16.3451C25.7068 16.4398 25.902 16.6 26.0393 16.8055C26.1767 17.0111 26.25 17.2528 26.25 17.5C26.25 17.8315 26.1183 18.1495 25.8839 18.3839C25.6495 18.6183 25.3315 18.75 25 18.75ZM25 13.75C24.7528 13.75 24.5111 13.6767 24.3055 13.5393C24.1 13.402 23.9398 13.2068 23.8451 12.9784C23.7505 12.7499 23.7258 12.4986 23.774 12.2561C23.8223 12.0137 23.9413 11.7909 24.1161 11.6161C24.2909 11.4413 24.5137 11.3222 24.7561 11.274C24.9986 11.2258 25.2499 11.2505 25.4784 11.3451C25.7068 11.4398 25.902 11.6 26.0393 11.8055C26.1767 12.0111 26.25 12.2528 26.25 12.5C26.25 12.8315 26.1183 13.1495 25.8839 13.3839C25.6495 13.6183 25.3315 13.75 25 13.75Z" fill="black"/>
</g>
<defs>
<clipPath id="clip0_28_480">
<rect width="30" height="30" fill="white"/>
</clipPath>
</defs>
</svg>
