<svg width="38" height="38" viewBox="0 0 38 38" fill="none" xmlns="http://www.w3.org/2000/svg">
<path d="M31.6667 9.50004H6.33333V6.33337H31.6667V9.50004ZM24.8425 22.1667H22.1667V24.8425C21.1692 26.3467 20.5833 28.1359 20.5833 30.0834C20.5833 30.6217 20.6467 31.1442 20.7258 31.6667H6.33333V22.1667H4.75V19L6.33333 11.0834H31.6667L33.25 19V21.1375C32.2525 20.7892 31.1917 20.5834 30.0833 20.5834C28.1358 20.5834 26.3467 21.1692 24.8425 22.1667ZM19 22.1667H9.5V28.5H19V22.1667ZM33.7883 25.08L28.1042 30.7642L25.5867 28.2467L23.75 30.0834L28.1042 34.8334L35.625 27.3125L33.7883 25.08Z" fill="#2B2D42"/>
</svg>
