<svg width="35" height="35" viewBox="0 0 35 35" fill="none" xmlns="http://www.w3.org/2000/svg">
<path d="M3.5 5.25C3.5 4.78587 3.68437 4.34075 4.01256 4.01256C4.34075 3.68437 4.78587 3.5 5.25 3.5C5.71413 3.5 6.15925 3.68437 6.48744 4.01256C6.81563 4.34075 7 4.78587 7 5.25H29.75C30.2141 5.25 30.6593 5.43437 30.9874 5.76256C31.3156 6.09075 31.5 6.53587 31.5 7C31.5 7.46413 31.3156 7.90925 30.9874 8.23744C30.6593 8.56563 30.2141 8.75 29.75 8.75H7V30.625C7 30.8571 6.90781 31.0796 6.74372 31.2437C6.57962 31.4078 6.35706 31.5 6.125 31.5H4.375C4.14294 31.5 3.92038 31.4078 3.75628 31.2437C3.59219 31.0796 3.5 30.8571 3.5 30.625V5.25ZM8.75 11.375C8.75 11.1429 8.84219 10.9204 9.00628 10.7563C9.17038 10.5922 9.39294 10.5 9.625 10.5H28.875C29.1071 10.5 29.3296 10.5922 29.4937 10.7563C29.6578 10.9204 29.75 11.1429 29.75 11.375V23.625C29.75 24.7853 29.2891 25.8981 28.4686 26.7186C27.6481 27.5391 26.5353 28 25.375 28H13.125C11.9647 28 10.8519 27.5391 10.0314 26.7186C9.21094 25.8981 8.75 24.7853 8.75 23.625V11.375ZM14 23.625C14 23.8571 14.0922 24.0796 14.2563 24.2437C14.4204 24.4078 14.6429 24.5 14.875 24.5H16.625C16.8571 24.5 17.0796 24.4078 17.2437 24.2437C17.4078 24.0796 17.5 23.8571 17.5 23.625V21.875C17.5 21.6429 17.5922 21.4204 17.7563 21.2563C17.9204 21.0922 18.1429 21 18.375 21H20.125C20.3571 21 20.5796 21.0922 20.7437 21.2563C20.9078 21.4204 21 21.6429 21 21.875V23.625C21 23.8571 21.0922 24.0796 21.2563 24.2437C21.4204 24.4078 21.6429 24.5 21.875 24.5H23.625C23.8571 24.5 24.0796 24.4078 24.2437 24.2437C24.4078 24.0796 24.5 23.8571 24.5 23.625V19.1625C24.5001 18.9151 24.4477 18.6706 24.3463 18.445C24.245 18.2193 24.097 18.0177 23.912 17.8535L19.831 14.2275C19.6709 14.0853 19.4642 14.0068 19.25 14.0068C19.0358 14.0068 18.8291 14.0853 18.669 14.2275L14.588 17.85C14.4026 18.0146 14.2543 18.2168 14.1529 18.4431C14.0516 18.6693 13.9994 18.9146 14 19.1625V23.625Z" fill="#2B2D42"/>
</svg>
