<svg width="155" height="135" viewBox="0 0 155 135" fill="none" xmlns="http://www.w3.org/2000/svg">
<path d="M150.265 51.2653C144.437 42.2474 137.085 34.1921 128.502 27.4192L146.579 10.3383C147.755 9.18775 148.405 7.6468 148.391 6.04731C148.376 4.44783 147.697 2.91779 146.5 1.78674C145.303 0.655694 143.684 0.0141297 141.991 0.000230608C140.298 -0.0136685 138.667 0.60121 137.45 1.71243L117.792 20.3123C105.605 13.4728 91.6735 9.90799 77.5 10.0028C37.5313 10.0028 14.7547 35.8559 4.73508 51.2653C1.63964 55.9962 0 61.4482 0 67.0102C0 72.5723 1.63964 78.0243 4.73508 82.7552C10.5632 91.7731 17.9148 99.8284 26.4981 106.601L8.42142 123.682C7.80482 124.245 7.31299 124.918 6.97464 125.662C6.63629 126.407 6.4582 127.207 6.45075 128.017C6.4433 128.827 6.60664 129.63 6.93125 130.38C7.25586 131.13 7.73524 131.811 8.3414 132.384C8.94757 132.956 9.66839 133.409 10.4618 133.716C11.2552 134.023 12.1053 134.177 12.9625 134.17C13.8198 134.163 14.6669 133.995 15.4546 133.675C16.2422 133.355 16.9546 132.891 17.5501 132.308L37.2537 113.69C49.4248 120.528 63.34 124.099 77.5 124.018C117.469 124.018 140.245 98.1646 150.265 82.7552C153.36 78.0243 155 72.5723 155 67.0102C155 61.4482 153.36 55.9962 150.265 51.2653ZM15.736 76.3681C13.8969 73.5562 12.9228 70.3159 12.9228 67.0102C12.9228 63.7046 13.8969 60.4643 15.736 57.6524C24.3482 44.4391 43.8129 22.2034 77.5 22.2034C88.2186 22.1467 98.7868 24.5876 108.269 29.3103L95.2732 41.5902C89.0751 37.7019 81.6441 35.9596 74.2412 36.659C66.8384 37.3584 59.9196 40.4564 54.6589 45.4273C49.3982 50.3983 46.1196 56.9359 45.3794 63.931C44.6392 70.9261 46.4831 77.9477 50.5981 83.8044L35.6849 97.8962C27.777 91.8551 21.0288 84.5728 15.736 76.3681ZM96.8678 67.0102C96.8678 71.864 94.8273 76.5189 91.1951 79.951C87.563 83.3831 82.6367 85.3112 77.5 85.3112C74.624 85.3007 71.7878 84.675 69.2041 83.4811L94.931 59.1713C96.1945 61.6127 96.8567 64.2926 96.8678 67.0102ZM58.1322 67.0102C58.1322 62.1565 60.1727 57.5016 63.8049 54.0695C67.437 50.6374 72.3633 48.7093 77.5 48.7093C80.376 48.7198 83.2122 49.3455 85.7959 50.5394L60.069 74.8492C58.8055 72.4078 58.1433 69.7279 58.1322 67.0102ZM139.264 76.3681C130.652 89.5814 111.187 111.817 77.5 111.817C66.7814 111.874 56.2132 109.433 46.731 104.71L59.7268 92.4303C65.9249 96.3186 73.3559 98.0609 80.7587 97.3615C88.1616 96.6621 95.0804 93.5641 100.341 88.5932C105.602 83.6222 108.88 77.0846 109.621 70.0895C110.361 63.0944 108.517 56.0728 104.402 50.2161L119.315 36.1243C127.223 42.1654 133.971 49.4477 139.264 57.6524C141.103 60.4643 142.077 63.7046 142.077 67.0102C142.077 70.3159 141.103 73.5562 139.264 76.3681Z" fill="black"/>
</svg>
