<svg width="39" height="39" viewBox="0 0 39 39" fill="none" xmlns="http://www.w3.org/2000/svg">
<path d="M22.5588 34.25C20.82 31.6987 19 28.335 19 25.3125C19 22.3388 20.56 19.625 22.9 18H22.25V14.75H25.5V16.7487C26.3125 16.5212 27.125 16.375 27.9375 16.375C28.2138 16.375 28.49 16.375 28.75 16.4237V5H6V34.25H15.75V28.5625H19V34.25H22.5588ZM22.25 8.25H25.5V11.5H22.25V8.25ZM12.5 31H9.25V27.75H12.5V31ZM12.5 24.5H9.25V21.25H12.5V24.5ZM12.5 18H9.25V14.75H12.5V18ZM12.5 11.5H9.25V8.25H12.5V11.5ZM15.75 8.25H19V11.5H15.75V8.25ZM15.75 14.75H19V18H15.75V14.75ZM15.75 24.5V21.25H19V24.5H15.75ZM27.9375 19.625C24.85 19.625 22.25 22.2412 22.25 25.3125C22.25 29.5537 27.9375 35.875 27.9375 35.875C27.9375 35.875 33.625 29.5537 33.625 25.3125C33.625 22.2412 31.025 19.625 27.9375 19.625ZM27.9375 27.4412C26.8 27.4412 25.9875 26.4662 25.9875 25.4912C25.9875 24.3538 26.9625 23.5413 27.9375 23.5413C28.9125 23.5413 29.8875 24.5 29.8875 25.4912C30.05 26.4662 29.075 27.4412 27.9375 27.4412Z" fill="#2B2D42"/>
</svg>
