<svg width="151" height="108" viewBox="0 0 151 108" fill="none" xmlns="http://www.w3.org/2000/svg">
<path d="M149.877 49.2493C144.353 37.8351 122.69 0.614014 75.5011 0.614014C28.3124 0.614014 6.64965 37.8351 1.12543 49.2493C0.383861 50.779 0 52.4417 0 54.1242C0 55.8066 0.383861 57.4693 1.12543 58.999C6.64965 70.4013 28.3124 107.622 75.5011 107.622C122.69 107.622 144.353 70.4013 149.877 58.9871C150.617 57.4592 151 55.7985 151 54.1182C151 52.4379 150.617 50.7772 149.877 49.2493ZM75.5011 95.7326C35.8186 95.7326 17.3017 63.8322 12.5828 54.1836C17.3017 44.4042 35.8186 12.5038 75.5011 12.5038C115.089 12.5038 133.612 44.2675 138.419 54.1182C133.612 63.9689 115.089 95.7326 75.5011 95.7326Z" fill="black"/>
<path d="M75.5011 24.3936C69.2791 24.3936 63.1968 26.137 58.0234 29.4031C52.85 32.6693 48.8178 37.3117 46.4367 42.7431C44.0556 48.1746 43.4326 54.1512 44.6465 59.9172C45.8603 65.6832 48.8565 70.9796 53.2562 75.1366C57.6558 79.2937 63.2613 82.1247 69.3638 83.2716C75.4662 84.4185 81.7916 83.8299 87.54 81.5801C93.2884 79.3303 98.2017 75.5205 101.658 70.6323C105.115 65.7441 106.96 59.9972 106.96 54.1182C106.95 46.2377 103.633 38.6826 97.7351 33.1102C91.8375 27.5378 83.8416 24.4031 75.5011 24.3936ZM75.5011 71.9529C71.7679 71.9529 68.1185 70.9069 65.0145 68.9472C61.9104 66.9875 59.4911 64.2021 58.0625 60.9433C56.6338 57.6844 56.26 54.0984 56.9883 50.6388C57.7167 47.1792 59.5144 44.0014 62.1542 41.5071C64.7939 39.0129 68.1572 37.3143 71.8187 36.6262C75.4802 35.938 79.2754 36.2912 82.7245 37.6411C86.1735 38.9909 89.1215 41.2768 91.1955 44.2098C93.2696 47.1427 94.3766 50.5908 94.3766 54.1182C94.3766 58.8483 92.388 63.3846 88.8481 66.7293C85.3083 70.0739 80.5072 71.9529 75.5011 71.9529Z" fill="black"/>
</svg>
