<svg width="29" height="38" viewBox="0 0 29 38" fill="none" xmlns="http://www.w3.org/2000/svg">
<path d="M26.9772 0H20.909C20.3725 0 19.858 0.207081 19.4786 0.575687C19.0993 0.944293 18.8862 1.44423 18.8862 1.96552C18.8862 2.4868 19.0993 2.98674 19.4786 3.35535C19.858 3.72395 20.3725 3.93103 20.909 3.93103H22.0889L19.5604 6.40431C17.4429 4.79623 14.8312 3.92529 12.1436 3.93103C9.0993 3.92932 6.16547 5.03941 3.92399 7.04117C1.68251 9.04293 0.297107 11.7901 0.0425318 14.738C-0.212043 17.6858 0.682804 20.6189 2.54961 22.9557C4.41641 25.2924 7.11882 26.8621 10.1209 27.3534V29.4828H6.74961C6.21314 29.4828 5.69865 29.6898 5.3193 30.0584C4.93996 30.4271 4.72685 30.927 4.72685 31.4483C4.72685 31.9696 4.93996 32.4695 5.3193 32.8381C5.69865 33.2067 6.21314 33.4138 6.74961 33.4138H10.1209V36.0345C10.1209 36.5558 10.334 37.0557 10.7133 37.4243C11.0927 37.7929 11.6072 38 12.1436 38C12.6801 38 13.1946 37.7929 13.574 37.4243C13.9533 37.0557 14.1664 36.5558 14.1664 36.0345V33.4138H17.5377C18.0742 33.4138 18.5886 33.2067 18.968 32.8381C19.3473 32.4695 19.5604 31.9696 19.5604 31.4483C19.5604 30.927 19.3473 30.4271 18.968 30.0584C18.5886 29.6898 18.0742 29.4828 17.5377 29.4828H14.1664V27.3534C16.1516 27.0268 18.0219 26.2253 19.609 25.0213C21.196 23.8173 22.4498 22.2485 23.2574 20.4564C24.0651 18.6642 24.4012 16.705 24.2354 14.7551C24.0697 12.8053 23.4073 10.9262 22.308 9.28707L24.9545 6.71552V7.86207C24.9545 8.38336 25.1676 8.88329 25.5469 9.2519C25.9263 9.62051 26.4408 9.82759 26.9772 9.82759C27.5137 9.82759 28.0282 9.62051 28.4075 9.2519C28.7869 8.88329 29 8.38336 29 7.86207V1.96552C29 1.44423 28.7869 0.944293 28.4075 0.575687C28.0282 0.207081 27.5137 0 26.9772 0ZM12.1436 23.5862C10.5434 23.5862 8.97907 23.1251 7.6485 22.2612C6.31793 21.3973 5.28088 20.1694 4.66849 18.7328C4.0561 17.2962 3.89587 15.7154 4.20807 14.1903C4.52026 12.6652 5.29086 11.2643 6.42241 10.1648C7.55396 9.06529 8.99565 8.3165 10.5652 8.01314C12.1347 7.70978 13.7615 7.86547 15.24 8.46053C16.7184 9.05559 17.9821 10.0633 18.8711 11.3562C19.7602 12.6491 20.2347 14.1692 20.2347 15.7241C20.2347 17.8093 19.3823 19.809 17.8649 21.2835C16.3475 22.7579 14.2895 23.5862 12.1436 23.5862Z" fill="#2B2D42"/>
</svg>
