<svg width="31" height="29" viewBox="0 0 31 29" fill="none" xmlns="http://www.w3.org/2000/svg">
<path d="M20.6478 15.346V12.0836C20.6478 11.7631 20.784 11.4557 21.0263 11.2291C21.2686 11.0025 21.5973 10.8752 21.94 10.8752H23.2322C23.5749 10.8752 23.9035 10.7479 24.1459 10.5213C24.3882 10.2947 24.5243 9.98738 24.5243 9.66692V8.4586C24.5243 8.13813 24.6605 7.83079 24.9028 7.60419C25.1451 7.37759 25.4738 7.25028 25.8165 7.25028H29.2859C29.538 7.24914 29.7844 7.18016 29.9956 7.0516C30.2069 6.92304 30.3741 6.74033 30.4773 6.52529C30.9137 5.62651 31.0816 4.63397 30.9632 3.65312C30.8155 2.63188 30.2732 1.69651 29.4386 1.02357C28.604 0.350621 27.5348 -0.0133437 26.4329 0.000374094C24.878 0.000466045 23.387 0.578107 22.2876 1.60623L12.0692 11.1592C10.422 10.7591 8.69033 10.7791 7.05428 11.2172C4.80341 11.8124 2.8587 13.1488 1.579 14.9798C0.299309 16.8108 -0.229007 19.0128 0.0915442 21.1795C0.412096 23.3462 1.55988 25.3314 3.3231 26.7688C5.08633 28.2061 7.34599 28.9986 9.68513 29C10.0235 28.9997 10.3616 28.9832 10.6982 28.9505C12.6237 28.7544 14.4428 28.0254 15.9226 26.8567C17.4023 25.688 18.4753 24.1329 19.0042 22.3905C19.4742 20.8612 19.4952 19.2417 19.0649 17.7022L19.9048 16.9168C20.3515 16.497 20.6162 15.9375 20.6478 15.346ZM7.09434 24.1667C6.71099 24.1667 6.33625 24.0604 6.01751 23.8613C5.69877 23.6621 5.45034 23.379 5.30364 23.0479C5.15693 22.7167 5.11855 22.3522 5.19334 22.0007C5.26813 21.6491 5.45273 21.3261 5.72379 21.0726C5.99486 20.8192 6.34023 20.6465 6.71621 20.5766C7.09219 20.5067 7.48191 20.5426 7.83608 20.6797C8.19024 20.8169 8.49296 21.0492 8.70593 21.3473C8.91891 21.6454 9.03259 21.9958 9.03259 22.3543C9.03259 22.835 8.82838 23.296 8.46489 23.6359C8.1014 23.9758 7.6084 24.1667 7.09434 24.1667Z" fill="black"/>
</svg>
