<svg width="31" height="29" viewBox="0 0 31 29" fill="none" xmlns="http://www.w3.org/2000/svg">
<path d="M24.5416 10.179V8.45831C24.5416 3.78694 20.4936 0 15.5 0C10.5064 0 6.45831 3.78694 6.45831 8.45831V10.179C4.10752 11.1388 2.5867 13.3089 2.58331 15.7083V22.9583C2.58755 26.2934 5.47654 28.996 9.04161 29H21.9583C25.5233 28.996 28.4123 26.2934 28.4166 22.9583V15.7083C28.4133 13.3089 26.8924 11.1388 24.5416 10.179ZM16.7916 20.5417C16.7916 21.209 16.2133 21.75 15.5 21.75C14.7866 21.75 14.2083 21.209 14.2083 20.5417V18.125C14.2083 17.4577 14.7866 16.9167 15.5 16.9167C16.2133 16.9167 16.7916 17.4577 16.7916 18.125V20.5417ZM21.9583 9.66669H9.04161V8.45837C9.04161 5.12167 11.9331 2.41669 15.5 2.41669C19.0668 2.41669 21.9583 5.12162 21.9583 8.45837V9.66669Z" fill="black"/>
</svg>
