<svg width="32" height="26" viewBox="0 0 32 26" fill="none" xmlns="http://www.w3.org/2000/svg">
<path d="M31.9386 5.3678L20.7146 15.3163C19.4631 16.4228 17.7676 17.0442 16 17.0442C14.2323 17.0442 12.5368 16.4228 11.2853 15.3163L0.0613028 5.3678C0.0426361 5.55453 -3.05176e-05 5.72353 -3.05176e-05 5.90907V20.0909C0.00208663 21.6575 0.705145 23.1594 1.95493 24.2672C3.20471 25.3749 4.89918 25.9981 6.66664 26H25.3333C27.1008 25.9981 28.7952 25.3749 30.045 24.2672C31.2948 23.1594 31.9979 21.6575 32 20.0909V5.90907C32 5.72353 31.9573 5.55453 31.9386 5.3678Z" fill="black"/>
<path d="M18.8293 13.6453L31.008 2.84936C30.418 1.98229 29.5859 1.26459 28.5919 0.765499C27.598 0.266409 26.4757 0.00276624 25.3333 0H6.66664C5.52427 0.00276624 4.40198 0.266409 3.40801 0.765499C2.41404 1.26459 1.58195 1.98229 0.991974 2.84936L13.1706 13.6453C13.9221 14.3086 14.9394 14.6811 16 14.6811C17.0605 14.6811 18.0779 14.3086 18.8293 13.6453Z" fill="black"/>
</svg>
