<svg width="42" height="42" viewBox="0 0 42 42" fill="none" xmlns="http://www.w3.org/2000/svg">
<path d="M20.8199 29.1547L29.1546 20.8532L20.853 12.5185L17.9359 15.4241L21.2565 18.7579L12.5225 18.7406L12.5142 22.8996L21.2482 22.917L17.9144 26.2376L20.8199 29.1547ZM20.7951 41.6319C17.9184 41.6262 15.2161 41.0746 12.6882 39.9771C10.1603 38.881 7.96239 37.3953 6.09453 35.52C4.22668 33.6447 2.74974 31.4409 1.66371 28.9087C0.576297 26.3764 0.0354502 23.672 0.0411702 20.7953C0.0468902 17.9186 0.598488 15.2163 1.69596 12.6884C2.79205 10.1605 4.27775 7.96256 6.15304 6.09471C8.02834 4.22686 10.2321 2.74922 12.7644 1.66181C15.2966 0.575783 18.0011 0.0356294 20.8778 0.0413494C23.7545 0.0470694 26.4568 0.597974 28.9847 1.69406C31.5126 2.79154 33.7105 4.27793 35.5784 6.15322C37.4462 8.02852 38.9231 10.2323 40.0092 12.7646C41.0966 15.2968 41.6374 18.0013 41.6317 20.878C41.626 23.7546 41.0744 26.4569 39.9769 28.9849C38.8808 31.5128 37.3951 33.7107 35.5198 35.5785C33.6445 37.4464 31.4408 38.9233 28.9085 40.0094C26.3762 41.0968 23.6718 41.6376 20.7951 41.6319ZM20.8034 37.4728C25.4476 37.4821 29.3846 35.8783 32.6143 32.6614C35.844 29.4445 37.4634 25.514 37.4727 20.8697C37.4819 16.2254 35.8781 12.2884 32.6612 9.05877C29.4444 5.82909 25.5138 4.20964 20.8695 4.2004C16.2252 4.19117 12.2883 5.79498 9.05859 9.01184C5.82891 12.2287 4.20946 16.1593 4.20022 20.8035C4.19099 25.4478 5.7948 29.3848 9.01166 32.6145C12.2285 35.8441 16.1591 37.4636 20.8034 37.4728Z" fill="white"/>
</svg>
