<svg width="37" height="37" viewBox="0 0 37 37" fill="none" xmlns="http://www.w3.org/2000/svg">
<path d="M4.16683 30.6667C3.31891 30.6667 2.5933 30.365 1.99 29.7617C1.38566 29.1574 1.0835 28.4312 1.0835 27.5833V9.08333C1.0835 8.23542 1.38566 7.50981 1.99 6.9065C2.5933 6.30217 3.31891 6 4.16683 6H28.8335C29.6814 6 30.4075 6.30217 31.0119 6.9065C31.6152 7.50981 31.9168 8.23542 31.9168 9.08333V27.5833C31.9168 28.4312 31.6152 29.1574 31.0119 29.7617C30.4075 30.365 29.6814 30.6667 28.8335 30.6667H4.16683ZM8.021 22.9583H9.79391V13.7083H8.40641L5.7085 15.6354L6.6335 17.0229L8.021 16.0208V22.9583ZM12.8002 22.9583H18.8127V21.4167H15.1897L15.1127 21.3396C15.6522 20.8257 16.0957 20.3889 16.4431 20.0292C16.7895 19.6694 17.0654 19.3868 17.271 19.1812C17.7335 18.7188 18.0804 18.2562 18.3116 17.7937C18.5429 17.3312 18.6585 16.8431 18.6585 16.3292C18.6585 15.584 18.3759 14.9612 17.8106 14.4607C17.2453 13.9591 16.5259 13.7083 15.6522 13.7083C14.9842 13.7083 14.3804 13.901 13.8408 14.2865C13.3012 14.6719 12.9286 15.1729 12.7231 15.7896L14.2647 16.4062C14.3932 16.0722 14.5798 15.8086 14.8244 15.6154C15.068 15.4232 15.3439 15.3271 15.6522 15.3271C16.0377 15.3271 16.3522 15.4299 16.5957 15.6354C16.8404 15.841 16.9627 16.0979 16.9627 16.4062C16.9627 16.6889 16.9113 16.952 16.8085 17.1956C16.7057 17.4402 16.4745 17.7424 16.1147 18.1021L14.8814 19.3354L12.8002 21.4167V22.9583ZM24.2085 22.9583C25.1335 22.9583 25.8786 22.7014 26.4439 22.1875C27.0092 21.6736 27.2918 21.0056 27.2918 20.1833C27.2918 19.7208 27.1634 19.3097 26.9064 18.95C26.6495 18.5903 26.2897 18.3076 25.8272 18.1021V18.025C26.187 17.8194 26.4696 17.5558 26.6752 17.2341C26.8807 16.9135 26.9835 16.5347 26.9835 16.0979C26.9835 15.4042 26.7137 14.8327 26.1741 14.3836C25.6345 13.9334 24.9536 13.7083 24.1314 13.7083C23.4891 13.7083 22.8914 13.8949 22.3385 14.268C21.7865 14.64 21.4335 15.0958 21.2793 15.6354L22.821 16.2521C22.9238 15.9437 23.0908 15.6997 23.322 15.5198C23.5533 15.3399 23.8231 15.25 24.1314 15.25C24.4654 15.25 24.7419 15.3466 24.9608 15.5398C25.1787 15.732 25.2877 15.9694 25.2877 16.2521C25.2877 16.6118 25.1592 16.8944 24.9022 17.1C24.6453 17.3056 24.3113 17.4083 23.9002 17.4083H23.2064V18.95H23.9772C24.4911 18.95 24.8894 19.0528 25.172 19.2583C25.4547 19.4639 25.596 19.7465 25.596 20.1062C25.596 20.4403 25.4547 20.7291 25.172 20.9727C24.8894 21.2173 24.5682 21.3396 24.2085 21.3396C23.7717 21.3396 23.4377 21.243 23.2064 21.0497C22.9752 20.8576 22.7696 20.5174 22.5897 20.0292L21.0481 20.6458C21.2279 21.391 21.5938 21.9629 22.1457 22.3617C22.6987 22.7595 23.3863 22.9583 24.2085 22.9583Z" fill="#2B2D42"/>
</svg>
