<svg width="42" height="42" viewBox="0 0 42 42" fill="none" xmlns="http://www.w3.org/2000/svg">
<path d="M20.7955 12.4771L12.4774 20.7953L20.7955 29.1134L23.7069 26.202L20.3796 22.8748L29.1136 22.8748L29.1136 18.7157L20.3796 18.7157L23.7069 15.3885L20.7955 12.4771ZM20.7955 -4.75944e-05C23.6722 -4.73429e-05 26.3756 0.546176 28.9057 1.63862C31.4358 2.72968 33.6366 4.211 35.5082 6.08258C37.3798 7.95416 38.8611 10.155 39.9522 12.6851C41.0446 15.2152 41.5908 17.9186 41.5908 20.7953C41.5908 23.6719 41.0446 26.3753 39.9522 28.9054C38.8611 31.4355 37.3798 33.6364 35.5082 35.5079C33.6366 37.3795 31.4358 38.8615 28.9057 39.954C26.3756 41.045 23.6722 41.5906 20.7955 41.5906C17.9188 41.5906 15.2154 41.045 12.6853 39.954C10.1552 38.8615 7.9544 37.3795 6.08283 35.5079C4.21125 33.6364 2.72993 31.4355 1.63887 28.9054C0.546422 26.3753 0.000199931 23.6719 0.000200182 20.7953C0.000200434 17.9186 0.546423 15.2152 1.63887 12.6851C2.72993 10.155 4.21125 7.95416 6.08283 6.08258C7.95441 4.211 10.1552 2.72968 12.6853 1.63862C15.2154 0.546175 17.9188 -4.78458e-05 20.7955 -4.75944e-05ZM20.7955 4.15901C16.1512 4.15901 12.2174 5.77065 8.99417 8.99392C5.7709 12.2172 4.15926 16.151 4.15926 20.7953C4.15926 25.4395 5.7709 29.3733 8.99417 32.5966C12.2174 35.8199 16.1512 37.4315 20.7955 37.4315C25.4398 37.4315 29.3736 35.8199 32.5968 32.5966C35.8201 29.3733 37.4318 25.4396 37.4318 20.7953C37.4318 16.151 35.8201 12.2172 32.5969 8.99393C29.3736 5.77065 25.4398 4.15901 20.7955 4.15901Z" fill="white"/>
</svg>
