<svg width="25" height="31" viewBox="0 0 25 31" fill="none" xmlns="http://www.w3.org/2000/svg">
<path d="M12.5 22.1147C12.9427 22.1147 13.3271 21.9504 13.6531 21.6218C13.9781 21.2922 14.1406 20.9036 14.1406 20.4561C14.1406 20.0085 13.9781 19.6199 13.6531 19.2903C13.3271 18.9617 12.9427 18.7975 12.5 18.7975C12.0573 18.7975 11.6734 18.9617 11.3484 19.2903C11.0224 19.6199 10.8594 20.0085 10.8594 20.4561C10.8594 20.9036 11.0224 21.2922 11.3484 21.6218C11.6734 21.9504 12.0573 22.1147 12.5 22.1147ZM12.5 17.2178C12.8125 17.2178 13.0797 17.1062 13.3016 16.883C13.5224 16.6586 13.6589 16.3754 13.7109 16.0331C13.737 15.8752 13.763 15.7435 13.7891 15.6382C13.8151 15.5329 13.8542 15.4276 13.9062 15.3223C14.0104 15.1117 14.1604 14.8942 14.3562 14.6699C14.551 14.4467 14.8698 14.1113 15.3125 13.6637C15.8594 13.1108 16.2698 12.558 16.5438 12.0051C16.8167 11.4522 16.9531 10.8994 16.9531 10.3465C16.9531 9.10913 16.5495 8.12871 15.7422 7.40525C14.9349 6.68073 13.8542 6.31847 12.5 6.31847C11.6667 6.31847 10.9052 6.50908 10.2156 6.89029C9.525 7.27256 8.97135 7.79278 8.55469 8.45096C8.3724 8.74055 8.33333 9.05648 8.4375 9.39873C8.54167 9.74098 8.77604 9.97792 9.14063 10.1096C9.34896 10.2149 9.59635 10.2212 9.88281 10.1285C10.1693 10.0369 10.4036 9.85945 10.5859 9.59618C10.8203 9.28025 11.1 9.03647 11.425 8.86482C11.751 8.69422 12.1094 8.60892 12.5 8.60892C13.125 8.60892 13.6328 8.78004 14.0234 9.12229C14.4141 9.46454 14.6094 9.89894 14.6094 10.4255C14.6094 10.873 14.512 11.2611 14.3172 11.5897C14.1214 11.9193 13.776 12.2947 13.2812 12.7159C12.8385 13.0845 12.487 13.4204 12.2266 13.7237C11.9661 14.026 11.7708 14.3219 11.6406 14.6115C11.5625 14.7958 11.5042 14.9932 11.4656 15.2038C11.426 15.4144 11.3932 15.6909 11.3672 16.0331C11.3411 16.349 11.4391 16.6255 11.6609 16.8624C11.8818 17.0994 12.1615 17.2178 12.5 17.2178ZM12.5 31C12.2917 31 12.0833 30.9605 11.875 30.8815C11.6667 30.8025 11.4844 30.6972 11.3281 30.5656C7.52604 27.1694 4.6875 24.017 2.8125 21.1084C0.9375 18.1988 0 15.4803 0 12.9529C0 9.00382 1.25677 5.85775 3.77031 3.51465C6.28281 1.17155 9.19271 0 12.5 0C15.8073 0 18.7172 1.17155 21.2297 3.51465C23.7432 5.85775 25 9.00382 25 12.9529C25 15.4803 24.0625 18.1988 22.1875 21.1084C20.3125 24.017 17.474 27.1694 13.6719 30.5656C13.5156 30.6972 13.3333 30.8025 13.125 30.8815C12.9167 30.9605 12.7083 31 12.5 31Z" fill="#2B2D42"/>
</svg>
